<svg width="119" height="32" viewBox="0 0 119 32" fill="none" xmlns="http://www.w3.org/2000/svg">
<path d="M13.5067 22.1219L10.0712 10.5805L6.51267 22.1219H13.5067ZM16.5579 31.6334L14.5498 25.5764H5.46573L3.45573 31.6334H0L8.44266 4.51768H11.5751L20.0187 31.6334H16.5576H16.5579Z" fill="#8E191C"/>
<path d="M20.0188 4.51797H23.4732V16.7002L32.0358 4.51797H36.3376L27.7423 16.6356L38.2714 31.6334H34.0471L25.6561 19.6366L23.4732 22.6977V31.6334H20.0188V4.51797Z" fill="#8E191C"/>
<path d="M41.2126 7.31524H44.6693L41.7541 31.633H38.272L41.2126 7.31524Z" fill="#8E191C"/>
<path d="M45.5719 0L44.6689 7.31542H48.3068L49.214 0H45.5719Z" fill="#8E191C"/>
<path d="M53.5833 27.2074C54.3385 26.5506 54.6097 25.6351 54.6389 24.4593V4.52081H58.0638V24.4593C58.0365 26.6264 57.2756 28.3222 55.9339 29.5523C54.593 30.7837 52.6996 31.6327 50.0964 31.6327C48.4241 31.6327 46.9357 31.0963 45.7936 30.4961C44.6509 29.8939 43.7341 29.0317 43.0439 27.9073L46.0481 26.3314C48.1754 29.1104 52.2446 28.2772 53.5836 27.2074" fill="#8E191C"/>
<path d="M94.0519 30.2484C93.028 30.1487 92.2385 29.8338 91.7048 29.3116C91.1443 28.7641 90.527 27.7145 89.8712 26.1917L80.8112 4.15997H79.0994L67.3752 31.7966H70.0076L73.2686 24.0519H84.186L85.1117 26.4597C85.8997 28.6275 86.9836 30.1124 88.3335 30.8727C89.6597 31.6208 91.0232 32 92.386 32C93.0136 32 93.5949 31.9267 94.1145 31.7831L94.3838 31.7085V30.2805L94.0522 30.2484H94.0519ZM83.0728 21.6871H74.1938L78.7241 11.1775L83.0728 21.6871Z" fill="#8E191C"/>
<path d="M98.7247 12.8626C98.2215 12.6049 97.4673 12.4754 96.4625 12.4754H92.794V13.2907H93.6093C94.7504 13.2907 95.511 13.6239 95.8918 14.2894C96.2719 14.9555 96.4621 15.981 96.4621 17.3666V31.6327H100.131V17.3666C100.131 15.9806 100.022 14.9485 99.8044 14.2688C99.5866 13.5901 99.227 13.1213 98.7244 12.8626H98.7247Z" fill="#8E191C"/>
<path d="M98.0106 10.0301C98.5813 10.0301 99.036 9.8672 99.3763 9.54104C99.7156 9.21487 99.8856 8.7666 99.8856 8.19589C99.8856 7.48957 99.6613 6.87805 99.213 6.36165C98.7644 5.84589 98.2278 5.58721 97.6031 5.58721C97.0324 5.58721 96.5771 5.75013 96.2377 6.0763C95.8977 6.40246 95.7284 6.85074 95.7284 7.42145C95.7284 8.12841 95.9527 8.73993 96.401 9.25569C96.8496 9.77209 97.3856 10.0301 98.0109 10.0301H98.0106Z" fill="#8E191C"/>
<path d="M117.21 12.6795C116.667 12.2717 115.851 12.068 114.765 12.068C113.678 12.068 112.679 12.2858 111.85 12.72C111.021 13.1551 110.363 13.685 109.873 14.3097H109.67C109.452 13.6577 109.079 13.1888 108.549 12.9035C108.019 12.6181 107.238 12.4754 106.205 12.4754H102.944V13.2907H103.352C104.493 13.2907 105.254 13.6239 105.634 14.2894C106.014 14.9556 106.205 15.981 106.205 17.3666V31.6327H109.873V16.5514C110.281 15.9267 110.824 15.4305 111.504 15.0636C112.183 14.6966 112.931 14.5134 113.746 14.5134C114.479 14.5134 115.132 14.6153 115.702 14.8193C116.273 15.0231 116.707 15.3287 117.007 15.7365L118.637 14.5137C118.148 13.6445 117.672 13.033 117.21 12.6795Z" fill="#8E191C"/>
</svg>
